<svg viewBox="0 0 59 59" xmlns="http://www.w3.org/2000/svg"><g fill="none" fill-rule="evenodd"><path d="m154.5 66c-16.293 0-29.5 13.207-29.5 29.5 0 16.293 13.207 29.501 29.5 29.501 16.293 0 29.5-13.208 29.5-29.501 0-16.293-13.207-29.5-29.5-29.5m16.562 30.13c0 2.311-1.873 4.184-4.184 4.184h-8.433v8.432c0 2.311-1.873 4.185-4.184 4.185h-.043c-2.311 0-4.185-1.873-4.185-4.185v-8.432h-9.03c-2.311 0-4.184-1.873-4.184-4.184v-.043c0-2.311 1.873-4.184 4.184-4.184h9.03v-9.03c0-2.311 1.873-4.184 4.184-4.184h.043c2.311 0 4.185 1.873 4.185 4.184v9.03h8.433c2.311 0 4.184 1.873 4.184 4.184v.043" transform="translate(-125-66)" fill="#7985a3"/></g></svg>